PathFileType	4	(X/Y/Z)	C:/Users/opensim2020/Desktop/walking_exp_matlab/subject01_walking07_straight_02.trc	
DataRate	CameraRate	NumFrames	NumMarkers	Units	OrigDataRate	OrigDataStartFrame	OrigNumFrames	
100.00	100.00	4	43	mm	100.00	1473	178	
Frame#	Time	LFHD			RFHD			LBHD			RBHD			C7			T10			CLAV			STRN			RBAK			LSHO			LUPA			LELB			LFRM			LWRA			LWRB			LFIN			RSHO			RUPA			RELB			RFRM			RWRA			RWRB			RFIN			LASI			RASI			LPSI			RPSI			LTHI			LKNE			LTIB			LANK			LHEE			LTOE			RTHI			RKNE			RTIB			RANK			RHEE			RTOE			*39			*40			*41			*42			
		X1	Y1	Z1	X2	Y2	Z2	X3	Y3	Z3	X4	Y4	Z4	X5	Y5	Z5	X6	Y6	Z6	X7	Y7	Z7	X8	Y8	Z8	X9	Y9	Z9	X10	Y10	Z10	X11	Y11	Z11	X12	Y12	Z12	X13	Y13	Z13	X14	Y14	Z14	X15	Y15	Z15	X16	Y16	Z16	X17	Y17	Z17	X18	Y18	Z18	X19	Y19	Z19	X20	Y20	Z20	X21	Y21	Z21	X22	Y22	Z22	X23	Y23	Z23	X24	Y24	Z24	X25	Y25	Z25	X26	Y26	Z26	X27	Y27	Z27	X28	Y28	Z28	X29	Y29	Z29	X30	Y30	Z30	X31	Y31	Z31	X32	Y32	Z32	X33	Y33	Z33	X34	Y34	Z34	X35	Y35	Z35	X36	Y36	Z36	X37	Y37	Z37	X38	Y38	Z38	X39	Y39	Z39	X40	Y40	Z40	X41	Y41	Z41	X42	Y42	Z42	X43	Y43	Z43	

45	0.440	-988.73346	547.69708	1667.37561	-1098.88123	513.30450	1677.18298	-1020.70612	659.78839	1622.22009	-1137.36621	627.52905	1632.24158	-1060.57324	689.63470	1429.59631	-1071.92957	720.69843	1135.95435	-1058.04639	545.52344	1363.86548	-1057.90991	500.06451	1209.90967	-1143.55261	740.08002	1237.94275	-897.33783	609.08447	1388.44812	-817.41693	650.34888	1203.22876	-822.49750	679.87549	1056.98364	-797.78900	661.91547	944.96625	-820.47955	610.03839	814.65594	-790.36633	662.02606	822.41425	-790.45313	632.79291	740.61731	-1210.77759	602.72742	1398.30054	-1315.59485	662.11914	1202.00659	-1325.10803	660.19818	1076.83142	-1361.21399	620.85474	963.09387	-1349.96997	526.89893	857.98480	-1386.46716	571.97314	852.49854	-1383.33667	524.89136	778.86804	-967.67218	537.91058	936.88629	-1184.27698	551.81805	927.49579	-1008.12683	726.78534	945.14331	-1153.16760	733.50989	944.13763	-914.52728	520.53735	609.85724	-936.77191	509.27600	476.56094	-930.67865	543.38275	288.15414	-991.12738	551.46863	72.95300	-1045.51025	593.99084	43.36069	-984.53857	404.61398	39.58773	-1247.96863	609.41852	589.85443	-1233.49438	616.32776	431.62564	-1232.32361	769.00092	342.58514	-1182.11584	922.81995	205.75439	-1126.05908	970.13452	226.08220	-1168.23242	898.86658	60.55527	-1077.13354	529.99982	1709.79065	-3101.88940	1973.08386	1023.19348	-3140.64014	2012.54395	1021.87402			 
46	0.450	-987.67792	537.68085	1668.10352	-1097.86780	503.47501	1677.92944	-1019.47284	649.78741	1622.98474	-1136.14868	617.77362	1633.02612	-1059.44604	679.72845	1430.58923	-1070.88269	711.38110	1136.94177	-1057.22778	535.78204	1364.53882	-1057.22522	490.62244	1210.43494	-1142.33752	730.65656	1238.97925	-896.49615	598.95837	1388.96924	-816.23340	638.13831	1203.49048	-820.88879	666.49615	1056.62952	-796.24841	645.78284	944.87421	-819.40009	590.91071	815.83521	-788.97900	643.02179	822.28821	-789.12042	611.80286	741.48999	-1209.97815	592.93610	1398.95349	-1314.35803	653.75568	1202.94348	-1323.28943	652.96021	1077.75989	-1359.15540	615.92566	963.16962	-1347.70935	524.02551	856.25848	-1384.10791	569.17053	851.58331	-1380.61816	523.64954	776.85956	-966.55945	529.29016	937.44989	-1183.41443	542.57355	928.28021	-1007.73145	718.15186	945.72260	-1152.70569	724.63940	943.37860	-913.61322	515.36676	609.56226	-936.00458	505.57281	476.02115	-930.12329	541.14093	287.90002	-991.13275	551.34967	73.03564	-1045.57031	593.96503	43.44829	-984.49432	404.40988	39.39987	-1247.66931	592.73645	590.39270	-1233.23108	595.71765	432.41397	-1232.80872	748.45972	344.27182	-1182.11255	905.23682	212.08694	-1125.77551	952.19183	233.75819	-1170.18396	885.27338	66.13506	-1076.23755	520.04370	1710.73022	-3101.81470	1973.13538	1023.18683	-3140.59766	2012.49951	1021.93835			 
47	0.460	-986.70026	527.69214	1668.71716	-1096.99023	493.65579	1678.63855	-1018.34039	639.87354	1623.68103	-1135.10242	608.02606	1633.78821	-1058.38696	669.83716	1431.54858	-1069.95532	702.14886	1137.95911	-1056.58887	526.08142	1365.10449	-1056.58972	481.21530	1210.87793	-1141.14319	721.23279	1240.05542	-895.68494	588.77087	1389.47986	-815.16504	626.10413	1203.88647	-819.15723	653.08154	1056.46509	-794.68890	629.63159	944.93384	-817.95508	571.87213	817.46454	-787.44800	623.86908	822.50665	-787.71539	590.46790	742.66895	-1209.27820	583.43793	1399.78491	-1313.31348	645.43866	1203.87402	-1321.63086	645.88165	1078.67395	-1357.10767	610.96454	963.42041	-1345.36133	521.21661	854.55151	-1381.95679	566.46686	850.86005	-1377.89697	522.52747	774.97327	-965.48749	520.83185	937.74689	-1182.66675	533.21796	929.30286	-1007.45813	709.65027	945.99939	-1152.31409	715.62042	942.59070	-912.83801	510.44687	609.20593	-935.25366	501.82166	475.64258	-929.73761	538.69751	287.70166	-991.18085	551.26062	73.05362	-1045.62048	593.92853	43.48398	-984.43561	404.14117	39.21056	-1247.09729	576.17816	591.61475	-1232.78674	575.27991	433.57840	-1233.07117	728.00470	346.16321	-1181.90100	887.18237	217.51067	-1124.85303	934.11914	238.95744	-1172.02405	869.47992	70.76109	-1075.26709	510.18442	1711.48584	-3102.04761	1973.13708	1023.33612	-3140.73755	2012.46936	1021.90985			 
48	0.470	-985.86176	517.69147	1669.34741	-1096.19165	483.86328	1679.34509	-1017.32562	629.93988	1624.35034	-1134.16748	598.30780	1634.53894	-1057.43665	660.02515	1432.37549	-1069.11304	693.06763	1138.93628	-1056.01062	516.44757	1365.69470	-1056.05310	471.89273	1211.25269	-1140.02209	711.97772	1241.07043	-895.07172	578.58923	1390.06360	-814.30646	613.94495	1204.34851	-817.39178	639.60687	1056.18616	-793.19745	613.45691	945.23877	-816.63062	552.53174	819.34540	-786.14819	604.64520	822.98865	-786.15833	568.99927	744.27075	-1208.40625	573.73126	1400.29956	-1312.11719	637.22357	1204.67749	-1320.03833	638.61475	1079.53613	-1355.03210	606.02301	963.57800	-1343.05725	518.50037	853.10675	-1379.79700	563.81201	850.12744	-1375.27844	521.48199	773.32745	-964.33612	512.32208	938.16852	-1181.91638	524.04840	930.20453	-1007.32330	701.16602	946.31744	-1152.04590	706.80731	941.96173	-912.29999	505.50729	608.77655	-934.74939	497.97324	475.21890	-929.46265	536.07147	287.56659	-991.32819	551.06982	73.11958	-1045.66602	593.93567	43.51738	-984.36224	404.15872	39.15159	-1246.91772	559.76978	592.79034	-1232.54089	554.87610	435.17822	-1232.90564	707.49829	348.04568	-1181.36621	868.70056	222.29634	-1123.93469	915.48364	243.38264	-1174.36743	851.02985	75.72906	-1074.35767	500.34515	1712.02319	-3101.78638	1973.12097	1023.33221	-3140.65210	2012.57458	1021.95227			 
